<svg xmlns="http://www.w3.org/2000/svg" width="20" height="20" viewBox="0 0 20 20">
  <path id="calendar" d="M19.688,20.008H.313A.313.313,0,0,1,0,19.7V2.821a.313.313,0,0,1,.313-.312H2.188a.313.313,0,0,1,.313.313V17.2a.313.313,0,0,0,.313.313H17.188A.313.313,0,0,0,17.5,17.2V2.821a.313.313,0,0,1,.313-.312h1.875A.313.313,0,0,1,20,2.821V19.7A.313.313,0,0,1,19.688,20.008ZM4.844,7.9H6.719a.313.313,0,0,1,.313.312v1.875a.313.313,0,0,1-.312.313H4.844a.313.313,0,0,1-.312-.312V8.211A.313.313,0,0,1,4.844,7.9Zm4.219,0h1.875a.313.313,0,0,1,.313.312v1.875a.313.313,0,0,1-.312.313H9.063a.313.313,0,0,1-.312-.312V8.211A.313.313,0,0,1,9.063,7.9Zm4.219,0h1.875a.313.313,0,0,1,.313.312v1.875a.313.313,0,0,1-.312.313H13.281a.313.313,0,0,1-.312-.312V8.211A.313.313,0,0,1,13.281,7.9ZM4.844,12.508H6.719a.313.313,0,0,1,.313.313V14.7a.313.313,0,0,1-.312.313H4.844a.313.313,0,0,1-.312-.312V12.821A.313.313,0,0,1,4.844,12.508Zm4.219,0h1.875a.313.313,0,0,1,.313.313V14.7a.313.313,0,0,1-.312.313H9.063A.313.313,0,0,1,8.75,14.7V12.821A.313.313,0,0,1,9.063,12.508ZM12.969,14.7V12.821a.313.313,0,0,1,.313-.312h1.875a.313.313,0,0,1,.313.313V14.7a.313.313,0,0,1-.312.313H13.281A.313.313,0,0,1,12.969,14.7ZM5.391,3.758V1.285A1.3,1.3,0,0,1,6.551.012a1.246,1.246,0,0,1,1.34,1.246V3.731A1.3,1.3,0,0,1,6.73,5,1.246,1.246,0,0,1,5.391,3.758Zm6.719,0V1.285A1.3,1.3,0,0,1,13.27.012a1.246,1.246,0,0,1,1.34,1.246V3.731A1.3,1.3,0,0,1,13.449,5,1.246,1.246,0,0,1,12.109,3.758Z" transform="translate(0 -0.008)" fill="#fff"/>
</svg>
