<svg xmlns="http://www.w3.org/2000/svg" width="12.857" height="12.857" viewBox="0 0 12.857 12.857">
  <path id="calendar" d="M12.657,12.857H.2a.2.2,0,0,1-.2-.2V1.808a.2.2,0,0,1,.2-.2H1.406a.2.2,0,0,1,.2.2v9.241a.2.2,0,0,0,.2.2h9.241a.2.2,0,0,0,.2-.2V1.808a.2.2,0,0,1,.2-.2h1.205a.2.2,0,0,1,.2.2V12.656A.2.2,0,0,1,12.657,12.857ZM3.114,5.073H4.319a.2.2,0,0,1,.2.2V6.479a.2.2,0,0,1-.2.2H3.114a.2.2,0,0,1-.2-.2V5.273A.2.2,0,0,1,3.114,5.073Zm2.712,0H7.031a.2.2,0,0,1,.2.2V6.479a.2.2,0,0,1-.2.2H5.826a.2.2,0,0,1-.2-.2V5.273A.2.2,0,0,1,5.826,5.073Zm2.712,0H9.744a.2.2,0,0,1,.2.2V6.479a.2.2,0,0,1-.2.2H8.538a.2.2,0,0,1-.2-.2V5.273A.2.2,0,0,1,8.538,5.073ZM3.114,8.036H4.319a.2.2,0,0,1,.2.2V9.442a.2.2,0,0,1-.2.2H3.114a.2.2,0,0,1-.2-.2V8.237A.2.2,0,0,1,3.114,8.036Zm2.712,0H7.031a.2.2,0,0,1,.2.2V9.442a.2.2,0,0,1-.2.2H5.826a.2.2,0,0,1-.2-.2V8.237A.2.2,0,0,1,5.826,8.036ZM8.337,9.442V8.237a.2.2,0,0,1,.2-.2H9.744a.2.2,0,0,1,.2.2V9.442a.2.2,0,0,1-.2.2H8.538A.2.2,0,0,1,8.337,9.442ZM3.465,2.411V.821A.833.833,0,0,1,4.211,0a.8.8,0,0,1,.861.8v1.59a.833.833,0,0,1-.746.819A.8.8,0,0,1,3.465,2.411Zm4.319,0V.821A.833.833,0,0,1,8.531,0a.8.8,0,0,1,.861.8v1.59a.833.833,0,0,1-.746.819A.8.8,0,0,1,7.785,2.411Z" transform="translate(0 0)" fill="#161615"/>
</svg>
