<svg xmlns="http://www.w3.org/2000/svg" width="16.598" height="12.339" viewBox="0 0 16.598 12.339">
  <path id="list" d="M2.474,13.247a1.286,1.286,0,0,1-.344.877,1.23,1.23,0,0,1-.877.344,1.286,1.286,0,0,1-.877-.344,1.23,1.23,0,0,1-.344-.877,1.286,1.286,0,0,1,.344-.877,1.23,1.23,0,0,1,.877-.344,1.286,1.286,0,0,1,.877.344A1.23,1.23,0,0,1,2.474,13.247Zm0-4.917a1.286,1.286,0,0,1-.344.877,1.23,1.23,0,0,1-.877.344,1.286,1.286,0,0,1-.877-.344A1.23,1.23,0,0,1,.031,8.33a1.286,1.286,0,0,1,.344-.877,1.112,1.112,0,0,1,.877-.344,1.286,1.286,0,0,1,.877.344A1.112,1.112,0,0,1,2.474,8.33ZM16.6,12.307v1.848a.321.321,0,0,1-.313.313H4.6a.321.321,0,0,1-.313-.313V12.307a.321.321,0,0,1,.313-.313H16.285a.321.321,0,0,1,.313.313ZM2.443,3.382a1.286,1.286,0,0,1-.344.877,1.23,1.23,0,0,1-.877.344,1.286,1.286,0,0,1-.877-.344A1.23,1.23,0,0,1,0,3.382a1.286,1.286,0,0,1,.344-.877,1.23,1.23,0,0,1,.877-.344,1.286,1.286,0,0,1,.877.344,1.178,1.178,0,0,1,.344.877ZM16.6,7.391V9.238a.321.321,0,0,1-.313.313H4.6a.321.321,0,0,1-.313-.313V7.391A.321.321,0,0,1,4.6,7.078H16.285a.321.321,0,0,1,.313.313Zm0-4.948V4.29a.321.321,0,0,1-.313.313H4.6A.321.321,0,0,1,4.29,4.29V2.443A.321.321,0,0,1,4.6,2.13H16.285a.284.284,0,0,1,.219.094A.338.338,0,0,1,16.6,2.443Z" transform="translate(0 -2.13)" fill="#fff"/>
</svg>
